<?xml version="1.0" encoding="UTF-8"?>
<svg preserveAspectRatio="xMidYMid meet" xmlns="http://www.w3.org/2000/svg" viewBox="0 0 384 188">
<path fill-rule="nonzero" fill="#0F72D8" d="M 345.06 24.4 L 352.91 26.91 C 353.04 26.95 353.14 27.07 353.14 27.21 C 353.14 27.35 353.05 27.48 352.92 27.52 L 345.09 30.11 C 344.99 30.14 344.91 30.22 344.88 30.32 L 342.37 38.17 C 342.33 38.3 342.21 38.39 342.07 38.4 C 341.93 38.4 341.8 38.31 341.76 38.18 L 339.17 30.35 C 339.14 30.25 339.06 30.17 338.96 30.14 L 331.11 27.63 C 330.98 27.59 330.88 27.47 330.88 27.33 C 330.88 27.19 330.97 27.06 331.1 27.02 L 338.93 24.43 C 339.03 24.4 339.11 24.32 339.14 24.22 L 341.65 16.37 C 341.69 16.24 341.81 16.14 341.95 16.14 C 342.09 16.14 342.21 16.23 342.26 16.36 L 344.85 24.19 C 344.88 24.29 344.96 24.37 345.06 24.4 Z M 78.68 158.78 C 78.67 161.6 78.7 163.16 78.78 163.46 C 78.87 163.8 79.02 164.13 79.24 164.41 C 80.25 165.74 81.58 165.98 83.21 165.15 C 83.45 165.03 83.65 164.84 83.79 164.6 C 84.19 163.91 84.73 163.27 85.4 162.68 C 85.75 162.36 86.27 162.31 86.68 162.55 C 87.09 162.8 87.3 163.28 87.19 163.74 C 86.62 166.33 84.98 167.71 82.27 167.91 C 76.21 168.35 75.79 163.51 75.81 158.76 C 75.84 154.02 76.31 149.18 82.36 149.68 C 85.07 149.91 86.69 151.32 87.24 153.91 C 87.34 154.38 87.13 154.85 86.72 155.09 C 86.31 155.33 85.79 155.27 85.44 154.95 C 84.77 154.36 84.24 153.71 83.85 153.01 C 83.72 152.77 83.52 152.58 83.28 152.45 C 81.65 151.6 80.33 151.84 79.3 153.15 C 79.08 153.43 78.92 153.76 78.83 154.1 C 78.75 154.4 78.7 155.96 78.68 158.78 Z M 52.18 149.88 C 54.14 149.86 55.98 149.88 57.71 149.95 C 58.19 149.97 58.57 150.36 58.57 150.84 L 58.57 151.42 C 58.57 151.95 58.14 152.37 57.61 152.37 L 54.13 152.37 C 53.77 152.37 53.48 152.66 53.48 153.03 L 53.47 167.19 C 53.47 167.26 53.46 167.32 53.44 167.39 C 53.33 167.76 52.93 167.94 52.22 167.95 C 51.52 167.95 51.12 167.76 51.01 167.39 C 50.99 167.33 50.98 167.27 50.98 167.2 L 50.9 153.04 C 50.9 152.86 50.83 152.7 50.71 152.57 C 50.58 152.45 50.41 152.38 50.24 152.38 L 46.76 152.4 C 46.23 152.4 45.8 151.98 45.8 151.45 L 45.8 150.87 C 45.79 150.39 46.18 149.99 46.66 149.97 C 48.38 149.9 50.22 149.88 52.18 149.88 Z M 17.61 150.75 C 17.61 150.57 17.68 150.39 17.8 150.26 C 17.93 150.13 18.11 150.06 18.29 150.06 L 22.98 150.03 C 26.16 150.01 28.75 152.66 28.77 155.96 L 28.81 161.5 C 28.83 164.8 26.28 167.49 23.1 167.51 L 18.41 167.54 C 18.04 167.54 17.73 167.24 17.73 166.87 Z M 20.38 153.1 L 20.12 164.47 C 20.11 164.98 20.52 165.41 21.03 165.42 L 22.67 165.46 C 24.43 165.5 25.89 164.12 25.93 162.38 L 26.09 155.45 C 26.11 154.61 25.79 153.8 25.21 153.2 C 24.63 152.59 23.82 152.24 22.97 152.22 L 21.33 152.19 C 20.82 152.18 20.39 152.59 20.38 153.1 Z M 35.62 165.41 L 43.08 165.41 C 43.34 165.41 43.54 165.62 43.54 165.87 L 43.54 167.18 C 43.54 167.43 43.34 167.64 43.08 167.64 L 33.17 167.64 C 32.91 167.64 32.71 167.43 32.71 167.18 L 32.71 150.45 C 32.71 150.2 32.91 149.99 33.17 149.99 L 42.89 149.99 C 43.14 149.99 43.35 150.2 43.35 150.45 L 43.35 151.8 C 43.35 152.05 43.14 152.26 42.89 152.26 L 35.61 152.26 C 35.36 152.26 35.15 152.46 35.15 152.72 L 35.15 156.95 C 35.15 157.2 35.36 157.41 35.61 157.41 L 41.98 157.41 C 42.23 157.41 42.44 157.62 42.44 157.87 L 42.44 159.14 C 42.44 159.39 42.23 159.6 41.98 159.6 L 35.62 159.6 C 35.37 159.6 35.16 159.8 35.16 160.06 L 35.16 164.95 C 35.16 165.2 35.37 165.41 35.62 165.41 Z M 65.11 165.27 L 72.21 165.27 C 72.46 165.27 72.66 165.47 72.66 165.72 L 72.66 167.06 C 72.66 167.31 72.46 167.51 72.21 167.51 L 62.33 167.51 C 62.08 167.51 61.88 167.31 61.88 167.06 L 61.88 150.46 C 61.88 150.21 62.08 150.01 62.33 150.01 L 72.25 150.01 C 72.39 150.01 72.53 150.08 72.61 150.2 C 72.69 150.32 72.71 150.46 72.67 150.6 L 72.25 151.88 C 72.19 152.07 72.02 152.19 71.82 152.19 L 64.97 152.19 C 64.72 152.19 64.52 152.39 64.52 152.64 L 64.52 156.73 C 64.52 156.98 64.72 157.18 64.97 157.18 L 71.3 157.18 C 71.55 157.18 71.75 157.38 71.75 157.63 L 71.75 159.29 C 71.75 159.54 71.55 159.74 71.3 159.74 L 65.11 159.74 C 64.86 159.74 64.66 159.94 64.66 160.19 L 64.66 164.82 C 64.66 165.07 64.86 165.27 65.11 165.27 Z M 96.07 167.81 C 95.38 167.82 94.99 167.63 94.88 167.26 C 94.86 167.2 94.85 167.13 94.85 167.07 L 94.77 153.03 C 94.77 152.86 94.71 152.69 94.59 152.56 C 94.46 152.44 94.3 152.37 94.13 152.37 L 90.67 152.39 C 90.14 152.39 89.72 151.97 89.72 151.45 L 89.72 150.88 C 89.72 150.4 90.09 150.01 90.57 149.99 C 92.28 149.92 94.1 149.89 96.05 149.9 C 97.99 149.88 99.82 149.9 101.53 149.96 C 102 149.98 102.38 150.38 102.38 150.85 L 102.38 151.43 C 102.38 151.95 101.95 152.37 101.43 152.37 L 97.98 152.37 C 97.81 152.37 97.64 152.43 97.52 152.56 C 97.4 152.68 97.33 152.85 97.33 153.02 L 97.32 167.06 C 97.32 167.13 97.31 167.2 97.29 167.26 C 97.18 167.63 96.78 167.81 96.07 167.81 Z M 110.82 163.25 C 111.36 163.26 111.86 163.5 112.23 163.93 C 112.6 164.35 112.8 164.91 112.79 165.5 C 112.77 166.72 111.85 167.69 110.74 167.67 C 110.21 167.66 109.7 167.42 109.33 167 C 108.96 166.57 108.76 166.01 108.77 165.42 C 108.79 164.2 109.71 163.23 110.82 163.25 Z M 110.82 163.25 "/>
<path fill-rule="nonzero" fill="#41C0AC" d="M 323.23 45.22 L 334.71 48.96 C 334.84 49.01 334.92 49.13 334.92 49.26 C 334.92 49.39 334.84 49.51 334.71 49.56 L 323.23 53.3 C 323.13 53.33 323.05 53.41 323.02 53.51 L 319.28 64.99 C 319.23 65.12 319.11 65.2 318.98 65.2 C 318.85 65.2 318.73 65.12 318.68 64.99 L 314.94 53.51 C 314.91 53.41 314.83 53.33 314.73 53.3 L 303.25 49.56 C 303.13 49.51 303.04 49.39 303.04 49.26 C 303.04 49.13 303.13 49.01 303.25 48.96 L 314.73 45.22 C 314.83 45.19 314.91 45.11 314.94 45.01 L 318.68 33.53 C 318.73 33.41 318.85 33.32 318.98 33.32 C 319.11 33.32 319.23 33.41 319.28 33.53 L 323.02 45.01 C 323.05 45.11 323.13 45.19 323.23 45.22 Z M 175.02 154.04 C 175.07 154.76 174.55 155.32 173.82 155.35 C 173.08 155.37 172.37 154.84 172.16 154.13 C 171.71 152.58 170.58 151.85 168.79 151.93 C 167.64 151.98 166.71 152.9 166.63 154.07 C 166.4 157.5 166.39 160.67 166.6 163.56 C 166.63 163.96 166.79 164.33 167.06 164.63 C 168.01 165.67 169.19 165.96 170.59 165.5 C 170.88 165.41 171.13 165.23 171.33 165 C 171.8 164.45 172.4 163.76 173.15 162.92 C 173.4 162.64 173.69 162.51 174.02 162.54 C 174.33 162.57 174.61 162.76 174.77 163.05 C 174.93 163.34 174.97 163.71 174.86 164.05 C 173.91 167.06 171.79 168.27 168.5 167.68 C 165.35 167.11 163.76 165.05 163.73 161.51 C 163.69 156.03 162.81 149.36 169.93 149.76 C 173.12 149.94 174.81 151.37 175.02 154.04 Z M 183.88 149.81 C 185.39 149.8 186.82 149.81 188.16 149.83 C 188.61 149.84 188.98 150.21 188.98 150.66 L 188.98 151.65 C 188.98 152.06 188.64 152.4 188.23 152.4 L 185.85 152.4 C 185.58 152.41 185.36 152.61 185.34 152.88 C 185.23 154.42 185.17 156.38 185.17 158.76 C 185.17 161.14 185.23 163.1 185.34 164.64 C 185.36 164.91 185.59 165.12 185.86 165.12 L 188.24 165.12 C 188.65 165.12 188.98 165.45 188.99 165.86 L 188.99 166.85 C 189 167.31 188.63 167.68 188.17 167.69 C 186.83 167.71 185.4 167.73 183.89 167.72 C 182.38 167.73 180.95 167.71 179.61 167.69 C 179.16 167.68 178.79 167.32 178.79 166.86 L 178.79 165.87 C 178.79 165.46 179.13 165.12 179.54 165.12 L 181.92 165.12 C 182.19 165.12 182.42 164.91 182.44 164.64 C 182.55 163.1 182.61 161.14 182.61 158.76 C 182.6 156.38 182.54 154.42 182.43 152.89 C 182.41 152.62 182.18 152.41 181.91 152.41 L 179.53 152.41 C 179.12 152.41 178.78 152.07 178.78 151.66 L 178.78 150.67 C 178.77 150.21 179.14 149.84 179.6 149.83 C 180.94 149.81 182.37 149.8 183.88 149.81 Z M 211.24 165.08 L 218.37 165.08 C 218.66 165.08 218.9 165.32 218.9 165.61 L 218.9 167.26 C 218.9 167.55 218.66 167.79 218.37 167.79 L 208.52 167.79 C 208.23 167.79 207.99 167.55 207.99 167.26 L 207.99 150.39 C 207.99 150.1 208.23 149.86 208.52 149.86 L 218.13 149.86 C 218.42 149.86 218.66 150.1 218.66 150.39 L 218.66 151.76 C 218.66 152.05 218.42 152.29 218.13 152.29 L 211.2 152.29 C 210.91 152.29 210.67 152.53 210.67 152.82 L 210.67 156.78 C 210.67 157.07 210.91 157.31 211.2 157.31 L 217.22 157.31 C 217.51 157.31 217.75 157.55 217.75 157.84 L 217.75 159.04 C 217.75 159.33 217.51 159.57 217.22 159.57 L 211.24 159.57 C 210.95 159.57 210.71 159.81 210.71 160.1 L 210.71 164.55 C 210.71 164.84 210.95 165.08 211.24 165.08 Z M 134.52 150.4 C 134.52 150.14 134.72 149.93 134.98 149.93 L 140.1 149.9 C 143.09 149.88 145.52 152.34 145.54 155.39 L 145.58 162.09 C 145.6 165.14 143.19 167.63 140.2 167.64 L 135.08 167.67 C 134.95 167.67 134.83 167.63 134.74 167.54 C 134.65 167.45 134.6 167.33 134.6 167.2 Z M 137.19 152.94 L 137.13 164.66 C 137.13 164.83 137.19 164.99 137.31 165.11 C 137.43 165.23 137.59 165.3 137.76 165.3 L 139.91 165.31 C 141.63 165.32 143.03 163.96 143.04 162.28 L 143.08 155.4 C 143.09 154.59 142.76 153.81 142.18 153.23 C 141.59 152.66 140.8 152.33 139.97 152.33 L 137.82 152.32 C 137.48 152.32 137.2 152.6 137.19 152.94 Z M 152.66 159.45 C 152.33 159.45 152.05 159.7 152.04 160.03 L 151.88 164.69 C 151.88 164.84 151.94 164.99 152.05 165.1 C 152.16 165.21 152.3 165.27 152.46 165.27 L 159.3 165.21 C 159.84 165.21 160.29 165.61 160.35 166.15 L 160.39 166.53 C 160.42 166.77 160.34 167 160.19 167.18 C 160.03 167.36 159.81 167.46 159.57 167.46 L 150.21 167.48 C 149.84 167.48 149.55 167.18 149.55 166.82 L 149.56 150.46 C 149.56 150.16 149.8 149.91 150.11 149.91 L 159.42 149.94 C 159.66 149.94 159.89 150.04 160.05 150.22 C 160.22 150.4 160.3 150.64 160.27 150.88 L 160.2 151.42 C 160.15 151.88 159.76 152.22 159.3 152.22 L 152.71 152.18 C 152.34 152.18 152.03 152.47 152.02 152.84 L 151.95 156.65 C 151.95 156.98 152.21 157.25 152.54 157.26 L 158.3 157.32 C 158.58 157.32 158.85 157.43 159.05 157.64 C 159.24 157.84 159.34 158.12 159.33 158.4 L 159.31 158.77 C 159.29 159.19 158.93 159.52 158.5 159.52 Z M 193.07 150.76 C 193.07 150.54 193.16 150.33 193.31 150.18 C 193.47 150.02 193.68 149.94 193.9 149.94 L 198.5 149.97 C 201.71 149.98 204.31 152.66 204.29 155.93 L 204.25 161.69 C 204.23 164.96 201.61 167.61 198.4 167.59 L 193.8 167.56 C 193.35 167.55 192.99 167.19 192.99 166.74 Z M 195.78 152.77 L 195.7 164.85 C 195.7 165.13 195.93 165.36 196.21 165.37 L 198.28 165.39 C 199.08 165.4 199.85 165.08 200.42 164.52 C 200.99 163.95 201.32 163.18 201.32 162.37 L 201.36 155.33 C 201.37 153.66 200.04 152.29 198.38 152.27 L 196.31 152.25 C 196.17 152.25 196.04 152.3 195.94 152.4 C 195.84 152.5 195.78 152.63 195.78 152.77 Z M 230 165.66 C 230 166.98 228.93 168.05 227.61 168.05 C 226.29 168.05 225.22 166.98 225.22 165.66 C 225.22 164.34 226.29 163.27 227.61 163.27 C 228.93 163.27 230 164.34 230 165.66 Z M 230 165.66 "/>
<path fill-rule="nonzero" fill="#587696" d="M 354.74 47.1 C 355.11 47.1 355.34 47.25 355.43 47.54 C 355.73 48.6 356.05 50.19 356.39 52.31 C 357.28 57.81 360.1 62.93 365.77 64.46 C 367.44 64.91 370.19 65.62 374 66.59 C 374.29 66.66 374.49 66.91 374.49 67.2 C 374.5 67.5 374.3 67.75 374.02 67.83 C 368.93 69.28 362.68 69.67 359.57 74.27 C 357.79 76.9 356.79 79.08 356.56 80.8 C 355.99 85.14 355.36 87.31 354.67 87.31 C 353.98 87.31 353.35 85.14 352.8 80.79 C 352.58 79.07 351.58 76.89 349.81 74.25 C 346.72 69.64 340.47 69.23 335.38 67.77 C 335.1 67.69 334.91 67.43 334.91 67.14 C 334.92 66.85 335.13 66.59 335.41 66.53 C 339.22 65.56 341.97 64.86 343.65 64.42 C 349.32 62.91 352.16 57.8 353.07 52.3 C 353.42 50.19 353.74 48.6 354.04 47.54 C 354.13 47.25 354.36 47.1 354.74 47.1 Z M 318.47 163.85 L 318.47 150.96 C 318.47 150.38 318.95 149.91 319.53 149.91 L 319.89 149.91 C 320.38 149.91 320.78 150.3 320.78 150.79 L 320.78 166.13 C 320.78 167.01 320.15 167.76 319.29 167.91 C 318.42 168.06 317.57 167.57 317.27 166.75 L 312.74 154.23 C 312.69 154.1 312.57 154.02 312.43 154.01 C 312.29 154.01 312.16 154.09 312.11 154.22 C 311.89 154.77 311.81 155.54 311.88 156.51 C 312.11 160.26 312.17 163.6 312.04 166.53 C 312.01 167.12 311.53 167.58 310.94 167.58 L 310.64 167.58 C 310.23 167.58 309.89 167.25 309.89 166.83 L 309.89 150.53 C 309.89 150.21 310.14 149.96 310.46 149.96 L 312.35 149.96 C 312.85 149.96 313.3 150.28 313.47 150.75 L 318.24 163.89 C 318.26 163.94 318.32 163.97 318.37 163.96 C 318.43 163.95 318.46 163.91 318.47 163.85 Z M 251.54 150.69 C 251.54 150.39 251.77 150.14 252.07 150.14 L 257 150.06 C 258.4 150.04 259.76 150.59 260.77 151.6 C 261.78 152.61 262.36 154 262.38 155.45 L 262.48 161.85 C 262.53 164.87 260.2 167.35 257.28 167.4 L 252.35 167.47 C 252.05 167.48 251.8 167.24 251.8 166.94 Z M 254.06 152.77 L 253.78 164.83 C 253.77 165.24 254.1 165.57 254.51 165.58 L 256.62 165.63 C 258.51 165.67 260.08 164.16 260.12 162.27 L 260.27 155.61 C 260.31 153.71 258.81 152.14 256.92 152.1 L 254.81 152.05 C 254.41 152.04 254.07 152.36 254.06 152.77 Z M 276.17 158.71 C 276.16 159.42 275.69 159.76 274.76 159.74 C 272.88 159.7 271.21 159.61 269.76 159.46 C 269.52 159.43 269.29 159.51 269.11 159.68 C 268.93 159.84 268.83 160.07 268.83 160.31 L 268.83 164.64 C 268.83 165.04 269.15 165.37 269.55 165.37 L 276.41 165.37 C 276.77 165.37 277.07 165.66 277.07 166.02 L 277.07 166.58 C 277.07 167.01 276.72 167.36 276.29 167.36 L 267.01 167.36 C 266.89 167.36 266.77 167.31 266.69 167.23 C 266.61 167.14 266.56 167.03 266.56 166.91 C 266.61 163.94 266.65 161.2 266.66 158.68 C 266.67 156.16 266.65 153.42 266.61 150.45 C 266.61 150.33 266.65 150.22 266.74 150.13 C 266.82 150.05 266.94 150 267.06 150 L 276.34 150.06 C 276.55 150.06 276.75 150.14 276.89 150.29 C 277.04 150.44 277.12 150.64 277.12 150.85 L 277.12 151.41 C 277.11 151.77 276.82 152.05 276.45 152.05 L 269.59 152.01 C 269.2 152.01 268.88 152.33 268.87 152.73 L 268.84 157.06 C 268.84 157.3 268.93 157.54 269.11 157.7 C 269.29 157.86 269.52 157.94 269.76 157.92 C 271.21 157.78 272.88 157.7 274.77 157.67 C 275.7 157.66 276.17 158 276.17 158.71 Z M 284.02 157.88 L 290.66 157.88 C 290.89 157.88 291.08 158.07 291.08 158.3 L 291.08 159.44 C 291.08 159.67 290.89 159.86 290.66 159.86 L 283.83 159.86 C 283.6 159.86 283.41 160.05 283.41 160.28 L 283.41 167.1 C 283.41 167.33 283.22 167.52 282.99 167.52 L 281.55 167.52 C 281.32 167.52 281.13 167.33 281.13 167.1 L 281.13 150.49 C 281.13 150.26 281.32 150.07 281.55 150.07 L 291.38 150.07 C 291.61 150.07 291.8 150.26 291.8 150.49 L 291.8 151.7 C 291.8 151.93 291.61 152.12 291.38 152.12 L 284.02 152.12 C 283.79 152.12 283.6 152.31 283.6 152.54 L 283.6 157.46 C 283.6 157.69 283.79 157.88 284.02 157.88 Z M 298.84 159.52 C 298.51 159.52 298.23 159.77 298.22 160.1 L 298.05 164.79 C 298.05 164.95 298.11 165.09 298.22 165.2 C 298.33 165.31 298.48 165.37 298.63 165.37 L 305.5 165.31 C 306.04 165.31 306.49 165.71 306.55 166.25 L 306.6 166.64 C 306.63 166.88 306.55 167.11 306.4 167.29 C 306.24 167.46 306.02 167.57 305.78 167.57 L 296.37 167.58 C 296.19 167.58 296.02 167.52 295.9 167.39 C 295.77 167.27 295.7 167.1 295.7 166.92 L 295.73 150.48 C 295.73 150.18 295.98 149.94 296.28 149.94 L 305.64 149.97 C 305.88 149.97 306.12 150.07 306.28 150.25 C 306.44 150.43 306.52 150.68 306.49 150.92 L 306.42 151.46 C 306.36 151.92 305.97 152.27 305.51 152.26 L 298.89 152.21 C 298.52 152.2 298.21 152.5 298.2 152.88 L 298.13 156.71 C 298.13 157.04 298.39 157.32 298.72 157.32 L 304.51 157.38 C 304.79 157.38 305.06 157.5 305.26 157.71 C 305.45 157.91 305.55 158.19 305.54 158.47 L 305.52 158.85 C 305.49 159.28 305.13 159.61 304.7 159.6 Z M 324.47 150.47 C 324.47 150.34 324.52 150.22 324.61 150.13 C 324.69 150.04 324.81 149.99 324.94 149.99 L 330.09 149.9 C 333.07 149.85 335.52 152.23 335.58 155.22 L 335.7 162.08 C 335.73 163.52 335.18 164.91 334.19 165.95 C 333.19 166.98 331.82 167.58 330.39 167.6 L 325.25 167.69 C 325.13 167.69 325 167.64 324.91 167.55 C 324.82 167.47 324.77 167.35 324.77 167.22 Z M 327.28 152.83 L 327.03 164.73 C 327.02 165.04 327.27 165.29 327.57 165.3 L 329.58 165.34 C 331.45 165.38 333 163.93 333.04 162.1 L 333.18 155.7 C 333.22 153.87 331.73 152.36 329.86 152.32 L 327.85 152.28 C 327.54 152.27 327.29 152.52 327.28 152.83 Z M 346.85 165.59 C 346.85 166.85 345.83 167.87 344.57 167.87 C 343.31 167.87 342.29 166.85 342.29 165.59 C 342.29 164.33 343.31 163.31 344.57 163.31 C 345.83 163.31 346.85 164.33 346.85 165.59 Z M 346.85 165.59 "/>
<path fill-rule="nonzero" fill="#FFFFFF" d="M 68.94 99.21 C 68.94 104.85 69.27 110 68.12 114.23 C 66.26 121.06 62.1 125.86 55.65 128.63 C 52.56 129.95 46.54 130.57 37.58 130.5 C 24.99 130.4 18.52 130.35 18.19 130.34 C 17.74 130.36 17.31 130.19 16.99 129.88 C 16.67 129.56 16.49 129.14 16.49 128.69 L 16.51 121.54 C 16.51 120.57 17.29 119.77 18.26 119.75 L 23.85 119.63 C 24.07 119.63 24.25 119.45 24.26 119.23 C 24.27 119.04 24.28 112.36 24.29 99.18 C 24.3 86 24.3 79.32 24.29 79.13 C 24.28 78.91 24.1 78.73 23.88 78.73 L 18.29 78.6 C 17.32 78.58 16.54 77.78 16.54 76.81 L 16.53 69.66 C 16.53 69.21 16.71 68.79 17.03 68.48 C 17.35 68.16 17.79 68 18.23 68.01 C 18.56 68 25.03 67.96 37.62 67.88 C 46.58 67.82 52.6 68.45 55.69 69.77 C 62.14 72.55 66.29 77.36 68.14 84.19 C 69.29 88.42 68.95 93.57 68.94 99.21 Z M 36.79 79.27 L 36.59 118.79 C 36.59 119.16 36.88 119.45 37.25 119.46 L 44.93 119.5 C 51.45 119.54 56.75 114.01 56.79 107.15 L 56.87 91.11 C 56.91 84.26 51.66 78.68 45.15 78.64 L 37.47 78.6 C 37.29 78.6 37.12 78.67 36.99 78.79 C 36.86 78.92 36.79 79.09 36.79 79.27 Z M 257.42 129.42 C 257.42 129.69 257.31 129.94 257.11 130.13 C 256.91 130.32 256.65 130.42 256.37 130.42 C 251.88 130.39 247.93 130.4 244.51 130.45 C 243.98 130.46 243.47 130.21 243.16 129.79 C 241.65 127.74 237.75 122.57 231.48 114.27 C 230.69 113.22 230.04 112.52 229.53 112.15 C 229.02 111.78 228.35 111.73 227.79 112.02 C 227.23 112.3 226.88 112.87 226.88 113.5 L 226.88 128.92 C 226.88 129.75 226.21 130.43 225.38 130.43 L 216.58 130.43 C 215.79 130.43 215.14 129.79 215.14 128.99 L 215.14 68.85 C 215.14 68.38 215.52 68 215.99 68 L 225.72 68 C 226.36 68 226.88 68.52 226.88 69.16 L 226.88 100.77 C 226.88 101.05 227.01 101.32 227.24 101.48 C 227.47 101.65 227.76 101.7 228.03 101.61 C 228.96 101.32 229.62 100.94 230 100.49 C 233.85 95.92 237.84 91.33 241.95 86.71 C 242.54 86.04 243.4 85.66 244.3 85.66 L 255.63 85.66 C 255.94 85.66 256.21 85.84 256.34 86.12 C 256.46 86.4 256.41 86.72 256.2 86.95 L 239.67 105.35 C 239.25 105.82 239.23 106.52 239.62 107.01 C 243.25 111.58 249.08 118.87 257.1 128.89 C 257.31 129.15 257.42 129.33 257.42 129.42 Z M 145.62 84.88 C 145.62 85.29 145.96 85.63 146.37 85.63 L 156.43 85.63 C 157.3 85.63 158.01 86.34 158.01 87.22 L 158.01 93.64 C 158.01 94.41 157.38 95.04 156.61 95.04 L 146.27 95.04 C 145.92 95.04 145.64 95.32 145.64 95.66 C 145.61 108.81 145.61 116.16 145.64 117.72 C 145.69 119.82 146.39 120.59 148.55 120.58 C 152.4 120.57 154.75 120.56 155.6 120.55 C 155.98 120.54 156.34 120.69 156.61 120.95 C 156.88 121.22 157.03 121.58 157.03 121.96 L 157.03 129.02 C 157.03 129.82 156.39 130.46 155.59 130.47 C 150.24 130.48 146.6 130.45 144.67 130.38 C 140.5 130.23 137.47 128.64 135.6 125.61 C 134.57 123.94 134.09 121.26 134.16 117.59 C 134.21 114.82 134.2 107.59 134.15 95.88 C 134.14 95.42 133.77 95.05 133.31 95.05 L 124.36 95.05 C 123.88 95.05 123.48 94.66 123.48 94.18 L 123.48 86.53 C 123.48 86.05 123.86 85.67 124.33 85.67 L 133.63 85.67 C 133.94 85.67 134.19 85.42 134.19 85.12 L 134.19 72.96 C 134.19 72.39 134.65 71.93 135.22 71.93 L 144.54 71.93 C 145.14 71.93 145.62 72.41 145.62 73.01 Z M 283.73 85.64 L 293.79 85.64 C 294.66 85.64 295.37 86.35 295.37 87.23 L 295.37 93.65 C 295.37 94.42 294.74 95.05 293.97 95.05 L 283.63 95.05 C 283.28 95.05 283 95.33 283 95.67 C 282.97 108.82 282.97 116.18 283 117.74 C 283.05 119.85 283.75 120.62 285.91 120.61 C 289.76 120.6 292.11 120.59 292.96 120.58 C 293.34 120.57 293.7 120.72 293.97 120.98 C 294.24 121.25 294.39 121.61 294.39 121.99 L 294.39 129.05 C 294.39 129.85 293.75 130.5 292.95 130.5 C 287.6 130.51 283.96 130.48 282.03 130.41 C 277.85 130.26 274.82 128.67 272.95 125.64 C 271.92 123.96 271.44 121.29 271.51 117.61 C 271.56 114.84 271.55 107.6 271.5 95.89 C 271.5 95.43 271.12 95.06 270.66 95.06 L 261.7 95.06 C 261.21 95.06 260.82 94.67 260.82 94.19 L 260.82 86.54 C 260.82 86.07 261.2 85.68 261.67 85.68 L 270.98 85.68 C 271.29 85.68 271.54 85.43 271.54 85.13 L 271.54 72.96 C 271.54 72.39 272 71.93 272.57 71.93 L 281.9 71.93 C 282.5 71.93 282.98 72.41 282.98 73.01 L 282.98 84.89 C 282.98 85.3 283.32 85.64 283.73 85.64 Z M 88.17 111.01 C 88 111.01 87.83 111.09 87.72 111.22 C 87.61 111.36 87.56 111.54 87.59 111.71 C 88.58 118.09 92.25 121.38 98.58 121.59 C 103.17 121.74 106.48 119.83 108.53 115.88 C 108.77 115.43 109.33 115.25 109.79 115.48 L 117.33 119.22 C 117.71 119.41 118 119.76 118.11 120.17 C 118.23 120.58 118.17 121.02 117.94 121.38 C 113.65 128.13 107.42 131.54 99.25 131.59 C 86.43 131.69 77.44 124.09 76.2 111.58 C 74.91 98.48 80.17 87.22 94.08 84.89 C 102.25 83.52 109 85.59 114.33 91.09 C 118.86 95.76 120.45 104.01 119.7 110.12 C 119.63 110.74 119.09 111.2 118.47 111.2 Z M 88.03 102.74 L 108.11 102.66 C 108.12 102.66 108.13 102.65 108.13 102.64 L 108.13 102.59 C 108.11 97.94 103.67 94.18 98.2 94.2 L 97.9 94.2 C 95.27 94.21 92.75 95.11 90.89 96.69 C 89.04 98.28 88 100.43 88.01 102.67 L 88.01 102.72 C 88.01 102.73 88.02 102.74 88.03 102.74 Z M 175.29 111.1 C 175.12 111.1 174.95 111.18 174.84 111.31 C 174.73 111.45 174.68 111.63 174.71 111.8 C 175.74 118.17 179.42 121.43 185.75 121.6 C 190.34 121.72 193.64 119.8 195.66 115.84 C 195.89 115.39 196.45 115.2 196.91 115.43 L 204.47 119.12 C 204.86 119.31 205.14 119.65 205.26 120.06 C 205.38 120.47 205.32 120.92 205.09 121.28 C 200.84 128.05 194.64 131.48 186.48 131.59 C 173.68 131.77 164.65 124.23 163.33 111.74 C 161.96 98.66 167.15 87.38 181.03 84.97 C 189.18 83.55 195.94 85.57 201.3 91.04 C 205.85 95.67 207.49 103.91 206.78 110.02 C 206.7 110.64 206.18 111.1 205.56 111.1 Z M 175.3 102.71 L 195.06 102.67 C 195.13 102.67 195.18 102.62 195.18 102.55 L 195.18 102.46 C 195.17 97.88 190.75 94.18 185.32 94.19 L 185 94.19 C 179.57 94.2 175.17 97.92 175.18 102.5 L 175.18 102.59 C 175.18 102.66 175.23 102.71 175.3 102.71 Z M 330.95 125.07 C 330.38 125.49 329.49 126.48 328.3 128.04 C 327.51 129.06 324.76 130.61 323.3 130.91 C 312.48 133.1 300.76 129.18 301.09 116.43 C 301.33 107.21 309.33 103.7 317.26 103.25 C 320.69 103.05 324.06 103.1 327.39 103.4 C 328.21 103.47 329.02 103.12 329.52 102.47 C 330.02 101.81 330.16 100.95 329.88 100.17 L 329.1 98.04 C 328.33 95.89 326.41 94.37 324.14 94.1 C 319.15 93.51 314.49 94.43 312.8 99.66 C 312.64 100.14 312.12 100.41 311.63 100.25 L 303.06 97.44 C 302.63 97.3 302.36 96.88 302.4 96.44 C 302.49 95.53 303.01 94.34 303.97 92.88 C 306.46 89.13 309.97 86.65 314.51 85.45 C 321.12 83.71 329.99 84.21 335.33 88.18 C 340.37 91.93 341.51 97.62 341.43 104.22 C 341.38 107.88 341.38 112.76 341.43 118.87 C 341.43 119.83 342.22 120.61 343.18 120.61 L 345.61 120.61 C 346.42 120.61 347.07 121.26 347.07 122.07 L 347.07 129.09 C 347.07 129.79 346.52 130.36 345.82 130.38 C 338.72 130.6 334.48 131.28 331.64 125.24 C 331.58 125.12 331.47 125.02 331.34 124.99 C 331.2 124.96 331.06 124.99 330.95 125.07 Z M 329.13 111.65 C 325.9 111.52 323.03 111.5 320.5 111.59 C 316.14 111.75 311.29 112.94 312.82 118.49 C 313.2 119.86 314 120.8 315.22 121.31 C 322.08 124.2 329.81 120.52 329.91 112.47 C 329.91 112.03 329.57 111.67 329.13 111.65 Z M 329.13 111.65 "/>
</svg>
