<?xml version="1.0" encoding="UTF-8"?>
<svg preserveAspectRatio="xMidYMid meet" xmlns="http://www.w3.org/2000/svg" viewBox="0 0 215 168">
<path fill-rule="nonzero" fill="#FFFFFF" d="M 109.23 98.04 C 110.23 94.2 110.97 92 110.96 87.87 C 110.94 72.15 110.93 64.29 110.93 64.27 C 110.74 52.86 105.77 45.8 96 43.11 C 90.3 41.54 82.73 42.36 75.92 42.27 C 75.78 42.27 75.64 42.32 75.54 42.42 C 75.44 42.52 75.38 42.66 75.38 42.8 L 75.38 109.22 C 75.38 109.49 75.2 109.72 74.94 109.77 C 68.56 111.07 62.17 111.26 55.76 110.34 C 55.21 110.26 54.8 109.79 54.81 109.23 C 54.87 90.7 54.81 69.63 54.63 46.01 C 54.61 44.22 55.19 42.17 52.56 42.2 C 48.14 42.24 45.29 42.23 44.01 42.17 C 41.65 42.06 41.03 40.37 41 38.23 C 40.91 32.74 40.91 29.09 40.98 27.26 C 41.07 24.99 42.24 23.85 44.51 23.84 C 59.4 23.77 74.32 23.77 89.25 23.84 C 103.59 23.9 118.35 29.33 125.81 41.96 C 130.64 50.12 131.75 58.32 131.67 69.38 C 131.63 74.86 131.62 80.36 131.63 85.87 C 131.64 86.82 131.11 87.69 130.26 88.13 L 109.86 98.55 C 109.71 98.63 109.52 98.61 109.39 98.5 C 109.25 98.39 109.19 98.21 109.23 98.04 Z M 109.23 98.04 "/>
<path fill-rule="nonzero" fill="#0F72D8" d="M 187.48 60.56 L 194.74 63 C 194.88 63.04 194.97 63.17 194.97 63.32 C 194.97 63.46 194.88 63.59 194.74 63.63 L 187.46 66.02 C 187.36 66.05 187.28 66.13 187.25 66.23 L 184.81 73.49 C 184.77 73.63 184.64 73.72 184.5 73.72 C 184.35 73.72 184.22 73.63 184.18 73.49 L 181.79 66.21 C 181.76 66.11 181.68 66.03 181.58 66 L 174.32 63.56 C 174.18 63.52 174.09 63.39 174.09 63.25 C 174.09 63.1 174.18 62.97 174.32 62.93 L 181.6 60.54 C 181.7 60.51 181.78 60.43 181.81 60.33 L 184.25 53.07 C 184.29 52.93 184.42 52.84 184.57 52.84 C 184.71 52.84 184.84 52.93 184.88 53.07 L 187.27 60.35 C 187.3 60.45 187.38 60.53 187.48 60.56 Z M 149.89 82.97 C 143.13 88.4 136.39 94.29 129.15 98.38 C 124.16 101.21 118.77 105.44 113.45 107.74 C 108.89 109.71 103.28 112.23 96.61 115.32 C 88.12 119.26 80.01 120.62 68.01 122.94 C 58.4 124.79 49.8 123.01 42.19 117.59 C 41.9 117.38 41.64 117.13 41.42 116.85 C 37.28 111.45 36.45 105.29 39.27 98.71 C 41.37 93.79 44.34 89.72 48.17 86.52 C 48.32 86.39 48.54 86.39 48.69 86.53 C 48.84 86.67 48.86 86.89 48.74 87.06 C 43.39 94.43 39.11 106.28 47.92 112.81 C 50.33 114.6 54.05 116.1 57.36 116.32 C 70.36 117.16 79.9 114.12 94.1 110.18 C 98.51 108.95 102.56 107.45 106.25 105.67 C 112.38 102.7 118.05 100.13 123.25 97.96 C 123.67 97.79 124.07 97.57 124.45 97.32 C 127.06 95.61 128.85 94.56 129.81 94.19 C 133.58 92.73 136.93 89.94 140.57 88.16 C 143.8 86.59 145.82 84.9 149.47 82.43 C 149.53 82.39 149.59 82.38 149.66 82.4 C 149.72 82.42 149.78 82.46 149.81 82.52 L 149.93 82.77 C 149.96 82.84 149.95 82.92 149.89 82.97 Z M 149.89 82.97 "/>
<path fill-rule="nonzero" fill="#41C0AC" d="M 161.14 65.79 L 167.23 67.73 C 167.36 67.77 167.45 67.89 167.45 68.02 C 167.45 68.16 167.36 68.28 167.23 68.32 L 161.15 70.28 C 161.05 70.31 160.98 70.39 160.95 70.48 L 159.01 76.57 C 158.97 76.7 158.85 76.79 158.71 76.79 C 158.58 76.79 158.46 76.7 158.42 76.57 L 156.46 70.49 C 156.43 70.39 156.36 70.32 156.26 70.29 L 150.17 68.35 C 150.04 68.31 149.96 68.19 149.96 68.05 C 149.96 67.92 150.04 67.8 150.17 67.76 L 156.25 65.8 C 156.34 65.77 156.42 65.7 156.45 65.6 L 158.39 59.51 C 158.43 59.38 158.55 59.3 158.68 59.3 C 158.82 59.3 158.94 59.38 158.98 59.51 L 160.94 65.59 C 160.97 65.68 161.05 65.76 161.14 65.79 Z M 45.73 78.7 C 40.29 84.97 36.44 90.54 34.17 95.39 C 33.95 95.87 33.77 96.36 33.63 96.87 C 32.43 101.25 31.79 105.55 31.72 109.76 C 31.67 112.34 32.51 115.03 34.24 117.82 C 39.54 126.39 46.68 127.91 55.99 128.86 C 58.64 129.13 61.96 128.99 65.98 128.42 C 74.35 127.24 80.67 125.91 84.96 124.44 C 89.5 122.89 96.73 120.13 106.64 116.16 C 113.07 113.6 118.92 109.89 125.12 106.97 C 128.73 105.26 133.05 102.77 138.07 99.5 C 140.76 97.75 144.96 95.05 150.67 91.41 C 154.52 88.95 162.34 83.04 174.15 73.68 C 174.2 73.64 174.26 73.62 174.31 73.62 C 174.36 73.62 174.4 73.64 174.41 73.68 C 174.42 73.69 174.39 73.73 174.33 73.79 C 170.23 78.24 165.75 82.61 160.88 86.88 C 157.41 89.93 152.81 93.69 147.08 98.18 C 143.92 100.65 140.93 102.73 138.11 104.41 C 134.03 106.84 130.4 110.03 125.97 112.47 C 115.09 118.49 108.51 122.07 106.22 123.21 C 99.91 126.35 95.43 127.77 87.39 130.74 C 82.27 132.63 78.1 133.9 74.87 134.55 C 67.66 135.99 60.67 136.63 53.88 136.48 C 48.49 136.36 44.31 135.68 41.34 134.43 C 35.51 131.97 28.69 126.36 26.71 119.82 C 24.12 111.29 24.93 103.42 29.14 96.23 C 33.42 88.91 38.8 82.91 45.29 78.22 C 45.43 78.13 45.61 78.16 45.71 78.27 C 45.82 78.39 45.83 78.57 45.73 78.7 Z M 45.73 78.7 "/>
<path fill-rule="nonzero" fill="#587696" d="M 178.76 86.46 L 184.51 88.29 C 184.64 88.33 184.73 88.46 184.73 88.59 C 184.73 88.73 184.64 88.86 184.51 88.9 L 178.76 90.7 C 178.66 90.73 178.58 90.81 178.55 90.91 L 176.72 96.66 C 176.68 96.79 176.55 96.88 176.41 96.88 C 176.28 96.88 176.15 96.79 176.11 96.66 L 174.31 90.91 C 174.28 90.81 174.2 90.73 174.1 90.7 L 168.35 88.87 C 168.22 88.83 168.13 88.7 168.13 88.57 C 168.13 88.43 168.22 88.3 168.35 88.26 L 174.1 86.46 C 174.2 86.43 174.28 86.35 174.31 86.25 L 176.14 80.5 C 176.18 80.37 176.3 80.28 176.45 80.28 C 176.59 80.28 176.71 80.37 176.75 80.5 L 178.55 86.25 C 178.58 86.35 178.66 86.43 178.76 86.46 Z M 27.45 132.27 C 33.64 138.69 41 142.19 49.53 142.76 C 60.07 143.46 70.62 141.55 81.13 137.87 C 83.19 137.16 87.33 135.8 93.55 133.8 C 99.8 131.79 107.39 127.26 114.64 124.28 C 120.97 121.67 125.83 118.51 130.26 115.72 C 133.46 113.7 138.65 111.66 142.39 109.14 C 147.93 105.4 153.48 101.71 159.05 98.08 C 159.14 98.02 159.26 98.04 159.33 98.13 L 159.33 98.14 C 159.42 98.26 159.41 98.42 159.3 98.52 C 153.06 103.95 149.5 106.99 148.62 107.62 C 144.88 110.33 141.08 113.2 137.24 116.23 C 135.63 117.5 133.95 118.65 132.22 119.69 C 127.28 122.64 123.78 124.63 119.67 127.38 C 113 131.83 105.4 134.89 99.71 137.71 C 88.88 143.06 77.17 146.76 66.08 148.8 C 51.37 151.49 32.59 149 27.23 132.4 C 27.21 132.34 27.23 132.28 27.29 132.24 C 27.34 132.21 27.41 132.22 27.45 132.27 Z M 27.45 132.27 "/>
</svg>
