<svg xmlns="http://www.w3.org/2000/svg" viewBox="0 0 48 48" width="100%" height="100%">
  <!-- Favicon v2 — one D, one tapered swoosh in blue→teal gradient, one teal sparkle. Dark-bg variant. -->
  <defs>
    <linearGradient id="dkswoosh" x1="0" y1="0" x2="1" y2="0">
      <stop offset="0" stop-color="#0F72D8"/>
      <stop offset="1" stop-color="#41C0AC"/>
    </linearGradient>
  </defs>
  <path d="M 13 4 h 12.5 c 11.5 0, 18 7.5, 18 16 c 0 8.5, -6.5 16, -18 16 h -12.5 Z M 21 11.5 h 4 c 6.5 0, 9.5 3.5, 9.5 8.5 c 0 5, -3 8.5, -9.5 8.5 h -4 Z" fill="#FFFFFF" fill-rule="evenodd"/>
  <path d="M 7 26 C 2 36, 9 46.5, 25 45.3 C 36 44.5, 43 36, 46 26 C 40 34.5, 33 39.6, 25 40.2 C 13 41.1, 4.5 34, 7 26 Z" fill="url(#dkswoosh)"/>
  <path transform="translate(42.5 19) scale(0.5)" d="M0,-7 C1.1,-1.2 1.2,-1.1 7,0 C1.2,1.1 1.1,1.2 0,7 C-1.1,1.2 -1.2,1.1 -7,0 C-1.2,-1.1 -1.1,-1.2 0,-7 Z" fill="#41C0AC"/>
</svg>
